<svg width="128" height="128" version="1.1" xmlns="http://www.w3.org/2000/svg"><path fill="rgb(252,252,252)" stroke="rgb(252,252,252)" stroke-width="1" opacity="1" d="M 48.5 48 L 49 50 L 47 50.5 L 49 57 L 46 55.5 L 47 51.5 Q 44.3 49.7 48.5 48 Z "></path><path fill="rgb(252,252,252)" stroke="rgb(252,252,252)" stroke-width="1" opacity="1" d="M 54.5 48 Q 57.1 47.2 56 50.5 L 57 53.5 L 56 53.5 Q 57.1 50.2 54.5 51 Q 51.5 49.5 54.5 48 Z "></path><path fill="rgb(252,252,252)" stroke="rgb(252,252,252)" stroke-width="1" opacity="1" d="M 69.5 48 L 70 50 L 68 50.5 L 68.5 52 L 67 51.5 L 68.5 55 L 70 55.5 L 68.5 56 Q 65.5 55.5 66 51.5 L 69.5 48 Z "></path><path fill="rgb(252,252,252)" stroke="rgb(252,252,252)" stroke-width="1" opacity="1" d="M 74.5 48 L 76.5 51 L 74 49.5 L 74.5 48 Z "></path><path fill="rgb(252,252,252)" stroke="rgb(252,252,252)" stroke-width="1" opacity="1" d="M 38.5 54 L 42 56.5 L 40 57 Q 41 54 38 55 Q 39.1 57.7 36.5 57 L 37 58.5 Q 37.9 63.9 35.5 66 L 35 64.5 Q 37.3 63.3 36 58.5 L 35 57.5 L 38.5 54 Z "></path><path fill="rgb(252,252,252)" stroke="rgb(252,252,252)" stroke-width="1" opacity="1" d="M 54.5 54 L 55 56.5 L 54 56.5 L 54.5 54 Z "></path><path fill="rgb(252,252,252)" stroke="rgb(252,252,252)" stroke-width="1" opacity="1" d="M 75.5 54 Q 78.5 53.2 77 57 L 74 55.5 L 75.5 54 Z "></path><path fill="rgb(252,252,252)" stroke="rgb(252,252,252)" stroke-width="1" opacity="1" d="M 89.5 56 L 92 57.5 L 91.5 59 L 90.5 57 L 88 58.5 L 89.5 56 Z "></path><path fill="rgb(252,252,252)" stroke="rgb(252,252,252)" stroke-width="1" opacity="1" d="M 3.5 57 L 4 70.5 L 3 70.5 L 3.5 57 Z "></path><path fill="rgb(252,252,252)" stroke="rgb(252,252,252)" stroke-width="1" opacity="1" d="M 41.5 58 Q 41.6 68.4 48 72.5 L 46.5 72 L 43 70.5 Q 44.5 66.1 41.5 67 L 41.5 65 Q 38.9 65.8 40 62.5 L 41.5 58 Z "></path><path fill="rgb(252,252,252)" stroke="rgb(252,252,252)" stroke-width="1" opacity="1" d="M 93.5 59 L 94 63.5 L 93 63.5 L 93.5 59 Z "></path><path fill="rgb(252,252,252)" stroke="rgb(252,252,252)" stroke-width="1" opacity="1" d="M 86.5 61 L 88 64.5 L 86 65 L 86.5 61 Z "></path><path fill="rgb(252,252,252)" stroke="rgb(252,252,252)" stroke-width="1" opacity="1" d="M 124.5 61 L 125 74.5 L 123.5 77 L 123 75.5 L 124 74.5 L 124.5 61 Z "></path><path fill="rgb(252,252,252)" stroke="rgb(252,252,252)" stroke-width="1" opacity="1" d="M 85.5 66 L 86.5 68 L 85 68.5 L 86 69.5 L 79.5 76 Q 78.3 73.8 77 76.5 L 76.5 78 L 75 77.5 L 74.5 79 L 72 77.5 Q 77.3 76.8 79.5 73 L 81 73.5 L 81.5 70 L 83.5 71 L 84 68.5 L 85.5 66 Z "></path><path fill="rgb(252,252,252)" stroke="rgb(252,252,252)" stroke-width="1" opacity="1" d="M 36 67 Q 38.7 65.9 38 68.5 L 45.5 78 Q 46.8 75.8 48 78.5 L 49.5 81 L 51 80.5 Q 51.8 82.8 49.5 82 L 44 77.5 L 43.5 76 L 42.5 77 L 39 73.5 L 37.5 71 L 36 70.5 L 36 68.5 L 36 67 Z "></path><path fill="rgb(252,252,252)" stroke="rgb(252,252,252)" stroke-width="1" opacity="1" d="M 90.5 67 L 92 69.5 L 86 78 L 81 80.5 Q 81.8 82.8 79.5 82 L 80 80.5 L 85.5 74 Q 86.8 76.2 88 73.5 Q 85.8 72.3 88.5 71 L 90 70.5 L 89.5 69 L 91 68.5 L 90.5 67 Z "></path><path fill="rgb(252,252,252)" stroke="rgb(252,252,252)" stroke-width="1" opacity="1" d="M 49.5 73 L 52 74 L 51.5 77 L 51 75 L 48 74.5 L 49.5 73 Z "></path><path fill="rgb(252,252,252)" stroke="rgb(252,252,252)" stroke-width="1" opacity="1" d="M 53.5 76 L 57 77.5 L 56.5 79 L 56 77 Q 52.7 77.8 53.5 76 Z "></path><path fill="rgb(252,252,252)" stroke="rgb(252,252,252)" stroke-width="1" opacity="1" d="M 61.5 79 L 71 79.5 L 61.5 80 L 61.5 79 Z "></path><path fill="rgb(252,252,252)" stroke="rgb(252,252,252)" stroke-width="1" opacity="1" d="M 56.5 82 L 58 82 L 58.5 84 L 72.5 84 L 72.5 85 Q 60.7 86.8 54 83.5 L 56.5 82 Z "></path><path fill="rgb(252,252,252)" stroke="rgb(252,252,252)" stroke-width="1" opacity="1" d="M 74.5 82 L 76.5 82 L 78 82.5 L 74 84 L 74.5 82 Z "></path><path fill="rgb(252,252,252)" stroke="rgb(252,252,252)" stroke-width="1" opacity="1" d="M 110.5 85 L 109.5 87 L 110.5 85 Z "></path><path fill="rgb(252,252,252)" stroke="rgb(252,252,252)" stroke-width="1" opacity="1" d="M 96.5 86 L 97.5 88 L 96.5 86 Z "></path><path fill="rgb(252,252,252)" stroke="rgb(252,252,252)" stroke-width="1" opacity="1" d="M 119 86 Q 122 85 121 88 Q 118 89 119 86 Z "></path><path fill="rgb(252,252,252)" stroke="rgb(252,252,252)" stroke-width="1" opacity="1" d="M 116.5 89 L 118.5 89 L 121 91.5 L 118.5 90 L 117.5 91 L 116.5 89 Z "></path><path fill="rgb(252,252,252)" stroke="rgb(252,252,252)" stroke-width="1" opacity="1" d="M 87.5 94 L 88.5 96 L 87.5 94 Z "></path><path fill="rgb(252,252,252)" stroke="rgb(252,252,252)" stroke-width="1" opacity="1" d="M 124.5 97 L 125 99 L 123 98.5 L 124.5 97 Z "></path><path fill="rgb(252,252,252)" stroke="rgb(252,252,252)" stroke-width="1" opacity="1" d="M 124.5 102 L 125 107.5 L 124 107.5 L 124.5 102 Z "></path><path fill="rgb(252,252,252)" stroke="rgb(252,252,252)" stroke-width="1" opacity="1" d="M 86.5 109 L 85.5 111 L 86.5 109 Z "></path><path fill="rgb(252,252,252)" stroke="rgb(252,252,252)" stroke-width="1" opacity="1" d="M 123.5 111 L 125 113.5 L 124 113.5 L 123.5 111 Z "></path><path fill="rgb(252,252,252)" stroke="rgb(252,252,252)" stroke-width="1" opacity="1" d="M 121.5 115 Q 124.5 116.5 121.5 118 L 121.5 115 Z "></path><path fill="rgb(252,252,252)" stroke="rgb(252,252,252)" stroke-width="1" opacity="1" d="M 89.5 116 L 92.5 121 L 94 120.5 L 92.5 122 L 89 118.5 L 89.5 116 Z "></path><path fill="rgb(252,252,252)" stroke="rgb(252,252,252)" stroke-width="1" opacity="1" d="M 119.5 118 L 118.5 120 L 119.5 118 Z "></path><path fill="rgb(252,252,252)" stroke="rgb(252,252,252)" stroke-width="1" opacity="1" d="M 86.5 119 L 87.5 121 Q 84.7 121.7 86.5 119 Z "></path><path fill="rgb(252,252,252)" stroke="rgb(252,252,252)" stroke-width="1" opacity="1" d="M 115.5 121 L 118 121.5 Q 115.9 124.8 115.5 121 Z "></path><path fill="rgb(252,252,252)" stroke="rgb(252,252,252)" stroke-width="1" opacity="1" d="M 98.5 123 L 99 125 L 97 124.5 L 98.5 123 Z "></path><path fill="rgb(252,252,252)" stroke="rgb(252,252,252)" stroke-width="1" opacity="1" d="M 111.5 123 L 112.5 125 L 111.5 123 Z "></path><path fill="rgb(252,252,252)" stroke="rgb(252,252,252)" stroke-width="1" opacity="1" d="M 102.5 124 L 108 124.5 L 102.5 125 L 102.5 124 Z "></path><path fill="rgb(254,254,254)" stroke="rgb(254,254,254)" stroke-width="1" opacity="1" d="M 51.5 47 Q 54.8 45.9 54 48.5 L 52.5 48 L 51.5 47 Z "></path><path fill="rgb(254,254,254)" stroke="rgb(254,254,254)" stroke-width="1" opacity="1" d="M 70.5 47 Q 75 46 76 48.5 L 74.5 48 Q 69.5 49 70.5 47 Z "></path><path fill="rgb(254,254,254)" stroke="rgb(254,254,254)" stroke-width="1" opacity="1" d="M 47.5 48 L 46.5 50 L 47.5 48 Z "></path><path fill="rgb(254,254,254)" stroke="rgb(254,254,254)" stroke-width="1" opacity="1" d="M 56.5 48 L 57 50.5 L 56 50.5 L 56.5 48 Z "></path><path fill="rgb(254,254,254)" stroke="rgb(254,254,254)" stroke-width="1" opacity="1" d="M 68.5 48 L 66.5 51 L 66 49 L 68.5 48 Z "></path><path fill="rgb(254,254,254)" stroke="rgb(254,254,254)" stroke-width="1" opacity="1" d="M 123.5 50 L 125 52.5 L 126 70.5 L 125 70.5 L 124.5 61 L 124 74.5 L 125 76.5 L 123 77.5 L 124 75.5 L 123 74.5 L 123.5 50 Z "></path><path fill="rgb(254,254,254)" stroke="rgb(254,254,254)" stroke-width="1" opacity="1" d="M 46.5 51 L 45.5 53 L 46.5 51 Z "></path><path fill="rgb(254,254,254)" stroke="rgb(254,254,254)" stroke-width="1" opacity="1" d="M 3 52 L 5 52.5 L 5 77.5 L 3 76.5 L 4 57.5 L 3 52 Z "></path><path fill="rgb(254,254,254)" stroke="rgb(254,254,254)" stroke-width="1" opacity="1" d="M 40.5 54 L 41.5 56 L 40.5 54 Z "></path><path fill="rgb(254,254,254)" stroke="rgb(254,254,254)" stroke-width="1" opacity="1" d="M 55 54 Q 58 53 57 56 Q 54 57 55 54 Z "></path><path fill="rgb(254,254,254)" stroke="rgb(254,254,254)" stroke-width="1" opacity="1" d="M 66.5 54 L 69 54.5 L 68.5 56 L 70.5 57 L 72.5 57 L 74.5 56 L 73.5 58 L 71.5 57 L 69.5 57 Q 64 58.5 66.5 54 Z "></path><path fill="rgb(254,254,254)" stroke="rgb(254,254,254)" stroke-width="1" opacity="1" d="M 51.5 56 L 54 56.5 L 50.5 58 L 49 57.5 L 51.5 56 Z "></path><path fill="rgb(254,254,254)" stroke="rgb(254,254,254)" stroke-width="1" opacity="1" d="M 36.5 57 L 35.5 59 L 36.5 57 Z "></path><path fill="rgb(254,254,254)" stroke="rgb(254,254,254)" stroke-width="1" opacity="1" d="M 41.5 57 Q 44.1 56.2 43 59.5 L 42 59.5 L 41.5 57 Z "></path><path fill="rgb(254,254,254)" stroke="rgb(254,254,254)" stroke-width="1" opacity="1" d="M 87.5 58 L 87 59.5 L 86.5 61 L 86 59.5 L 87.5 58 Z "></path><path fill="rgb(254,254,254)" stroke="rgb(254,254,254)" stroke-width="1" opacity="1" d="M 35.5 60 L 36 63.5 L 35 63.5 L 35.5 60 Z "></path><path fill="rgb(254,254,254)" stroke="rgb(254,254,254)" stroke-width="1" opacity="1" d="M 92.5 63 L 94 65.5 L 93 68 L 91 67.5 Q 94.5 66 92 64.5 L 92.5 63 Z "></path><path fill="rgb(254,254,254)" stroke="rgb(254,254,254)" stroke-width="1" opacity="1" d="M 85.5 65 L 82.5 70 L 84 70.5 L 82.5 71 L 81 68 L 83 68 Q 81.9 65.3 84.5 66 L 85.5 65 Z "></path><path fill="rgb(254,254,254)" stroke="rgb(254,254,254)" stroke-width="1" opacity="1" d="M 43.5 66 Q 46.1 65.3 45 68 L 47 68 L 47 70.5 L 44 70.5 L 44 68.5 L 43.5 66 Z "></path><path fill="rgb(254,254,254)" stroke="rgb(254,254,254)" stroke-width="1" opacity="1" d="M 91.5 70 L 92 72 L 89.5 73 L 91.5 70 Z "></path><path fill="rgb(254,254,254)" stroke="rgb(254,254,254)" stroke-width="1" opacity="1" d="M 36.5 71 L 39 72.5 L 37.5 72 L 36.5 71 Z "></path><path fill="rgb(254,254,254)" stroke="rgb(254,254,254)" stroke-width="1" opacity="1" d="M 87.5 73 L 89 76 L 86.5 77 L 86 74.5 L 87.5 73 Z "></path><path fill="rgb(254,254,254)" stroke="rgb(254,254,254)" stroke-width="1" opacity="1" d="M 55.5 75 L 57.5 78 L 55 77.5 L 55.5 75 Z "></path><path fill="rgb(254,254,254)" stroke="rgb(254,254,254)" stroke-width="1" opacity="1" d="M 41.5 76 L 40.5 78 L 41.5 76 Z "></path><path fill="rgb(254,254,254)" stroke="rgb(254,254,254)" stroke-width="1" opacity="1" d="M 73.5 76 L 76 77.5 L 74.5 77 L 73.5 76 Z "></path><path fill="rgb(254,254,254)" stroke="rgb(254,254,254)" stroke-width="1" opacity="1" d="M 59.5 77 L 72 77.5 L 59.5 78 L 59.5 77 Z "></path><path fill="rgb(254,254,254)" stroke="rgb(254,254,254)" stroke-width="1" opacity="1" d="M 82.5 79 L 81.5 81 L 82.5 79 Z "></path><path fill="rgb(254,254,254)" stroke="rgb(254,254,254)" stroke-width="1" opacity="1" d="M 47.5 80 L 50 80.5 L 49.5 83 L 47 81.5 L 47.5 80 Z "></path><path fill="rgb(254,254,254)" stroke="rgb(254,254,254)" stroke-width="1" opacity="1" d="M 101 81 L 104 81.5 L 101 83 L 101 81 Z "></path><path fill="rgb(254,254,254)" stroke="rgb(254,254,254)" stroke-width="1" opacity="1" d="M 51.5 82 L 56 84.5 L 54.5 85 L 51.5 82 Z "></path><path fill="rgb(254,254,254)" stroke="rgb(254,254,254)" stroke-width="1" opacity="1" d="M 78.5 82 L 78 83.5 L 78 85 L 73 85 L 73.5 83 L 76.5 84 L 78.5 82 Z "></path><path fill="rgb(254,254,254)" stroke="rgb(254,254,254)" stroke-width="1" opacity="1" d="M 100.5 84 L 107 84.5 L 98.5 86 L 98.5 85 L 100.5 84 Z "></path><path fill="rgb(254,254,254)" stroke="rgb(254,254,254)" stroke-width="1" opacity="1" d="M 108.5 84 Q 110.8 83.3 110 85.5 L 111.5 85 L 117.5 88 L 119.5 85 L 122 86.5 L 120 89.5 L 120.5 91 L 118.5 88 L 116.5 88 L 111.5 86 L 110.5 87 L 108.5 84 Z M 119 86 Q 118 89 121 88 Q 122 85 119 86 Z "></path><path fill="rgb(254,254,254)" stroke="rgb(254,254,254)" stroke-width="1" opacity="1" d="M 94.5 87 L 96 87.5 L 93.5 89 L 94.5 87 Z "></path><path fill="rgb(254,254,254)" stroke="rgb(254,254,254)" stroke-width="1" opacity="1" d="M 91.5 90 L 92 92 L 89 93.5 L 86.5 97 L 88 94.5 L 91.5 90 Z "></path><path fill="rgb(254,254,254)" stroke="rgb(254,254,254)" stroke-width="1" opacity="1" d="M 121.5 92 L 122.5 94 L 121.5 92 Z "></path><path fill="rgb(254,254,254)" stroke="rgb(254,254,254)" stroke-width="1" opacity="1" d="M 123.5 95 L 124.5 97 L 123.5 95 Z "></path><path fill="rgb(254,254,254)" stroke="rgb(254,254,254)" stroke-width="1" opacity="1" d="M 85.5 98 L 86 99.5 L 84.5 103 L 84 100.5 L 85.5 98 Z "></path><path fill="rgb(254,254,254)" stroke="rgb(254,254,254)" stroke-width="1" opacity="1" d="M 125.5 99 L 126 101.5 L 125 101.5 L 125.5 99 Z "></path><path fill="rgb(254,254,254)" stroke="rgb(254,254,254)" stroke-width="1" opacity="1" d="M 126.5 103 L 127 106.5 L 126 106.5 L 126.5 103 Z "></path><path fill="rgb(254,254,254)" stroke="rgb(254,254,254)" stroke-width="1" opacity="1" d="M 84.5 105 Q 84.3 109.3 87 110.5 L 86 112.5 L 87 114.5 L 86 114.5 L 85 111.5 L 85.5 110 Q 82.6 110.4 84.5 105 Z "></path><path fill="rgb(254,254,254)" stroke="rgb(254,254,254)" stroke-width="1" opacity="1" d="M 124.5 108 L 126 111.5 L 125 111.5 L 124.5 108 Z "></path><path fill="rgb(254,254,254)" stroke="rgb(254,254,254)" stroke-width="1" opacity="1" d="M 86.5 118 L 87.5 120 L 86.5 118 Z "></path><path fill="rgb(254,254,254)" stroke="rgb(254,254,254)" stroke-width="1" opacity="1" d="M 120.5 118 L 121 119.5 L 118.5 121 L 120.5 118 Z "></path><path fill="rgb(254,254,254)" stroke="rgb(254,254,254)" stroke-width="1" opacity="1" d="M 116.5 121 L 113.5 125 L 116.5 121 Z "></path><path fill="rgb(254,254,254)" stroke="rgb(254,254,254)" stroke-width="1" opacity="1" d="M 92.5 122 L 97 123 L 96.5 125 L 92.5 123 L 92.5 122 Z "></path><path fill="rgb(254,254,254)" stroke="rgb(254,254,254)" stroke-width="1" opacity="1" d="M 99.5 125 L 102 125.5 L 99.5 126 L 99.5 125 Z "></path><path fill="rgb(254,254,254)" stroke="rgb(254,254,254)" stroke-width="1" opacity="1" d="M 109.5 125 L 112 125.5 L 109.5 126 L 109.5 125 Z "></path><path fill="rgb(254,254,254)" stroke="rgb(254,254,254)" stroke-width="1" opacity="1" d="M 103.5 126 L 107 126.5 L 103.5 127 L 103.5 126 Z "></path><path fill="rgb(255,255,255)" stroke="rgb(255,255,255)" stroke-width="1" opacity="1" d="M 0 0 L 128 0 L 128 128 L 0 128 L 0 0 Z M 50 47 Q 49 49 53 48 L 53 49 L 49 48 L 46 50 L 47 53 L 46 57 L 51 56 L 54 57 L 56 56 L 57 56 L 57 48 L 50 47 Z M 71 47 Q 70 49 74 48 L 74 49 L 70 48 L 66 49 L 66 57 L 70 57 L 73 56 L 77 57 L 76 54 L 77 51 L 76 49 Q 75 46 71 47 Z M 124 50 L 124 78 L 125 77 Q 124 72 126 71 L 125 53 L 124 50 Z M 78 51 L 77 54 L 78 54 L 78 51 Z M 3 52 L 3 77 L 5 78 L 5 53 L 3 52 Z M 37 54 L 37 56 L 35 59 L 35 61 Q 34 66 36 68 Q 34 73 38 72 L 39 76 L 41 75 L 41 77 L 47 79 L 49 83 L 52 81 L 56 83 L 54 83 L 55 85 L 57 84 L 58 85 L 78 85 L 79 83 L 77 82 L 80 80 L 81 83 L 81 82 Q 82 78 86 79 L 88 76 Q 90 77 89 74 L 92 72 Q 91 68 94 66 L 94 60 L 92 56 L 88 56 L 88 58 L 88 60 L 88 64 L 87 60 L 86 60 Q 85 64 87 66 L 87 67 L 86 66 L 85 66 Q 82 65 83 68 Q 85 69 83 70 L 83 68 Q 80 67 81 72 L 81 74 L 80 73 L 78 77 L 78 75 L 73 77 L 58 77 L 56 75 L 53 77 L 55 78 L 54 78 Q 51 77 53 76 L 52 73 L 48 74 L 47 72 L 47 68 L 43 66 L 42 62 L 43 60 L 42 56 Q 41 53 37 54 Z M 101 81 L 101 83 L 104 82 L 101 81 Z M 101 84 L 101 85 L 109 86 Q 101 85 97 88 L 95 87 L 95 89 Q 93 93 92 90 Q 89 91 91 93 L 87 95 L 88 97 Q 85 101 86 109 L 85 101 L 84 101 Q 83 109 86 113 L 87 111 L 89 117 L 95 121 L 97 125 L 100 124 L 103 125 L 112 124 L 115 122 L 117 123 Q 119 122 117 121 L 119 121 L 121 120 L 120 118 L 125 109 Q 127 103 124 102 L 125 99 L 125 96 L 124 98 L 121 94 Q 118 88 111 87 L 113 86 Q 109 83 101 84 Z M 120 85 L 118 88 L 118 90 L 121 92 L 120 90 L 122 87 L 120 85 Z M 126 99 L 125 102 L 126 102 L 126 99 Z M 127 103 L 126 107 L 127 107 L 127 103 Z M 126 109 L 125 112 L 126 112 L 126 109 Z M 87 118 Q 84 123 88 122 L 87 118 Z M 90 118 Q 88 121 91 120 L 90 118 Z M 93 121 L 92 123 L 95 123 L 93 121 Z M 100 125 L 100 126 L 102 126 L 100 125 Z M 110 125 L 110 126 L 112 126 L 110 125 Z M 104 126 L 104 127 L 107 127 L 104 126 Z "></path><path fill="rgb(255,255,255)" stroke="rgb(255,255,255)" stroke-width="1" opacity="1" d="M 68.5 50 L 68 51.5 L 67.5 54 L 67 51.5 L 68.5 50 Z "></path><path fill="rgb(255,255,255)" stroke="rgb(255,255,255)" stroke-width="1" opacity="1" d="M 55.5 51 L 56 53.5 L 55 53.5 L 55.5 51 Z "></path><path fill="rgb(255,255,255)" stroke="rgb(255,255,255)" stroke-width="1" opacity="1" d="M 40.5 59 L 41 61.5 L 40 61.5 L 40.5 59 Z "></path><path fill="rgb(255,255,255)" stroke="rgb(255,255,255)" stroke-width="1" opacity="1" d="M 92.5 60 L 93 62.5 L 92 62.5 L 92.5 60 Z "></path><path fill="rgb(255,255,255)" stroke="rgb(255,255,255)" stroke-width="1" opacity="1" d="M 91.5 64 L 92 66.5 L 91 66.5 L 91.5 64 Z "></path><path fill="rgb(255,255,255)" stroke="rgb(255,255,255)" stroke-width="1" opacity="1" d="M 57.5 78 L 74 78.5 L 57.5 79 L 57.5 78 Z "></path><path fill="rgb(255,255,255)" stroke="rgb(255,255,255)" stroke-width="1" opacity="1" d="M 58.5 83 L 73 83.5 L 58.5 84 L 58.5 83 Z "></path><path fill="rgb(17,17,17)" stroke="rgb(17,17,17)" stroke-width="1" opacity="1" d="M 49 50 Q 52.8 49 54 51.5 L 52.5 55 Q 48.1 56.5 49 53.5 L 49 51.5 L 49 50 Z "></path><path fill="rgb(17,17,17)" stroke="rgb(17,17,17)" stroke-width="1" opacity="1" d="M 70.5 50 Q 74.3 49.3 75 51.5 L 73.5 55 Q 69.8 55.8 69 53.5 L 70.5 50 Z "></path><path fill="rgb(17,17,17)" stroke="rgb(17,17,17)" stroke-width="1" opacity="1" d="M 38.5 57 Q 41.3 58.3 39 59.5 L 39 64.5 L 45.5 74 L 56.5 80 L 74.5 80 L 87 69.5 Q 89.9 65.6 89 59 Q 92.3 57.7 91 62.5 Q 88.2 74.7 78.5 80 L 73.5 82 L 58.5 82 Q 45.9 79.6 40 70.5 Q 36.2 66 38.5 57 Z "></path><path fill="rgb(170,150,145)" stroke="rgb(170,150,145)" stroke-width="1" opacity="1" d="M 53.5 54 L 52.5 56 L 50 55.5 L 53.5 54 Z "></path><path fill="rgb(170,150,145)" stroke="rgb(170,150,145)" stroke-width="1" opacity="1" d="M 37.5 58 L 38 64.5 L 37 64.5 L 37.5 58 Z "></path><path fill="rgb(170,150,145)" stroke="rgb(170,150,145)" stroke-width="1" opacity="1" d="M 39.5 59 L 40 64.5 L 39 64.5 L 39.5 59 Z "></path><path fill="rgb(170,150,145)" stroke="rgb(170,150,145)" stroke-width="1" opacity="1" d="M 88.5 62 L 89 64.5 L 88 64.5 L 88.5 62 Z "></path><path fill="rgb(170,150,145)" stroke="rgb(170,150,145)" stroke-width="1" opacity="1" d="M 90.5 63 L 91 65.5 L 90 65.5 L 90.5 63 Z "></path><path fill="rgb(170,150,145)" stroke="rgb(170,150,145)" stroke-width="1" opacity="1" d="M 89.5 67 L 90 68.5 L 88 69.5 L 89.5 67 Z "></path><path fill="rgb(170,150,145)" stroke="rgb(170,150,145)" stroke-width="1" opacity="1" d="M 86.5 69 L 79.5 77 L 86.5 69 Z "></path><path fill="rgb(170,150,145)" stroke="rgb(170,150,145)" stroke-width="1" opacity="1" d="M 42.5 70 L 45.5 74 L 42.5 70 Z "></path><path fill="rgb(170,150,145)" stroke="rgb(170,150,145)" stroke-width="1" opacity="1" d="M 40.5 71 L 44.5 76 L 40.5 71 Z "></path><path fill="rgb(170,150,145)" stroke="rgb(170,150,145)" stroke-width="1" opacity="1" d="M 87.5 71 L 80.5 79 L 87.5 71 Z "></path><path fill="rgb(170,150,145)" stroke="rgb(170,150,145)" stroke-width="1" opacity="1" d="M 47.5 74 L 49.5 77 L 47.5 74 Z "></path><path fill="rgb(170,150,145)" stroke="rgb(170,150,145)" stroke-width="1" opacity="1" d="M 46.5 76 L 48.5 79 L 46.5 76 Z "></path><path fill="rgb(170,150,145)" stroke="rgb(170,150,145)" stroke-width="1" opacity="1" d="M 55.5 81 L 58 81.5 L 55.5 82 L 55.5 81 Z "></path><path fill="rgb(170,150,145)" stroke="rgb(170,150,145)" stroke-width="1" opacity="1" d="M 61.5 82 L 72 82.5 L 61.5 83 L 61.5 82 Z "></path><path fill="rgb(170,150,145)" stroke="rgb(170,150,145)" stroke-width="1" opacity="1" d="M 119.5 93 L 120.5 95 L 119.5 93 Z "></path><path fill="rgb(170,150,145)" stroke="rgb(170,150,145)" stroke-width="1" opacity="1" d="M 123.5 107 L 124 109.5 L 123 109.5 L 123.5 107 Z "></path><path fill="rgb(170,150,145)" stroke="rgb(170,150,145)" stroke-width="1" opacity="1" d="M 93.5 119 L 94.5 121 L 93.5 119 Z "></path><path fill="rgb(170,150,145)" stroke="rgb(170,150,145)" stroke-width="1" opacity="1" d="M 107.5 123 L 110 123.5 L 107.5 124 L 107.5 123 Z "></path><path fill="rgb(232,223,216)" stroke="rgb(232,223,216)" stroke-width="1" opacity="1" d="M 49.5 49 L 48.5 51 L 49.5 49 Z "></path><path fill="rgb(232,223,216)" stroke="rgb(232,223,216)" stroke-width="1" opacity="1" d="M 70.5 49 L 69.5 51 L 70.5 49 Z "></path><path fill="rgb(232,223,216)" stroke="rgb(232,223,216)" stroke-width="1" opacity="1" d="M 73.5 49 Q 76.5 49.5 76 53.5 L 75 53.5 L 73.5 49 Z "></path><path fill="rgb(232,223,216)" stroke="rgb(232,223,216)" stroke-width="1" opacity="1" d="M 48.5 54 L 49.5 56 L 48.5 54 Z "></path><path fill="rgb(232,223,216)" stroke="rgb(232,223,216)" stroke-width="1" opacity="1" d="M 38.5 56 L 41 57.5 L 40.5 59 L 40 57 L 37.5 58 L 38.5 56 Z "></path><path fill="rgb(232,223,216)" stroke="rgb(232,223,216)" stroke-width="1" opacity="1" d="M 89.5 58 L 92 59.5 L 91.5 62 L 91 59 Q 88 57.8 89 61.5 L 88 61.5 L 89.5 58 Z "></path><path fill="rgb(232,223,216)" stroke="rgb(232,223,216)" stroke-width="1" opacity="1" d="M 45.5 72 L 46.5 74 L 45.5 72 Z "></path><path fill="rgb(232,223,216)" stroke="rgb(232,223,216)" stroke-width="1" opacity="1" d="M 49.5 75 L 50.5 77 L 49.5 75 Z "></path><path fill="rgb(232,223,216)" stroke="rgb(232,223,216)" stroke-width="1" opacity="1" d="M 78.5 76 L 77.5 78 L 78.5 76 Z "></path><path fill="rgb(232,223,216)" stroke="rgb(232,223,216)" stroke-width="1" opacity="1" d="M 58.5 79 L 61 79.5 L 58.5 80 L 58.5 79 Z "></path><path fill="rgb(232,223,216)" stroke="rgb(232,223,216)" stroke-width="1" opacity="1" d="M 79.5 79 L 78.5 81 L 79.5 79 Z "></path><path fill="rgb(232,223,216)" stroke="rgb(232,223,216)" stroke-width="1" opacity="1" d="M 58.5 82 L 61 82.5 L 58.5 83 L 58.5 82 Z "></path><path fill="rgb(232,223,216)" stroke="rgb(232,223,216)" stroke-width="1" opacity="1" d="M 101.5 86 L 109 86.5 L 101.5 87 L 101.5 86 Z "></path><path fill="rgb(232,223,216)" stroke="rgb(232,223,216)" stroke-width="1" opacity="1" d="M 114.5 88 L 115.5 90 L 114.5 88 Z "></path><path fill="rgb(232,223,216)" stroke="rgb(232,223,216)" stroke-width="1" opacity="1" d="M 94.5 89 L 89.5 95 L 94.5 89 Z "></path><path fill="rgb(232,223,216)" stroke="rgb(232,223,216)" stroke-width="1" opacity="1" d="M 118.5 91 L 119.5 93 L 118.5 91 Z "></path><path fill="rgb(232,223,216)" stroke="rgb(232,223,216)" stroke-width="1" opacity="1" d="M 86.5 101 L 87 108.5 L 86 108.5 L 86.5 101 Z "></path><path fill="rgb(232,223,216)" stroke="rgb(232,223,216)" stroke-width="1" opacity="1" d="M 88.5 114 L 89.5 116 L 88.5 114 Z "></path><path fill="rgb(232,223,216)" stroke="rgb(232,223,216)" stroke-width="1" opacity="1" d="M 120.5 116 L 119.5 118 L 120.5 116 Z "></path><path fill="rgb(232,223,216)" stroke="rgb(232,223,216)" stroke-width="1" opacity="1" d="M 91.5 118 L 92.5 120 L 91.5 118 Z "></path><path fill="rgb(232,223,216)" stroke="rgb(232,223,216)" stroke-width="1" opacity="1" d="M 117.5 119 L 116.5 121 L 117.5 119 Z "></path><path fill="rgb(218,63,12)" stroke="rgb(218,63,12)" stroke-width="1" opacity="1" d="M 101.5 87 Q 114.5 85.5 119 92.5 Q 123.8 97.2 124 106.5 L 121 115.5 L 115.5 121 L 111.5 123 L 103.5 124 Q 95.7 122.3 91 117.5 Q 85.7 112.8 87 101.5 Q 88.8 93.9 94.5 90 L 101.5 87 Z "></path></svg>